<mxfile host="app.diagrams.net" agent="Mozilla/5.0 (Macintosh; Intel Mac OS X 10_15_7) AppleWebKit/537.36 (KHTML, like Gecko) Chrome/131.0.0.0 Safari/537.36" version="24.9.0">
  <diagram name="Page-1" id="y9c-VlX4-540HgfOaCwG">
    <mxGraphModel dx="3435" dy="2120" grid="1" gridSize="10" guides="1" tooltips="1" connect="1" arrows="1" fold="1" page="1" pageScale="1" pageWidth="850" pageHeight="1100" math="0" shadow="0">
      <root>
        <mxCell id="0" />
        <mxCell id="1" parent="0" />
        <mxCell id="3YYerWjg6TskRWQByBJE-127" style="edgeStyle=orthogonalEdgeStyle;rounded=0;orthogonalLoop=1;jettySize=auto;html=1;entryX=0;entryY=0.5;entryDx=0;entryDy=0;endArrow=none;endFill=0;" parent="1" source="3YYerWjg6TskRWQByBJE-1" target="3YYerWjg6TskRWQByBJE-21" edge="1">
          <mxGeometry relative="1" as="geometry">
            <mxPoint x="-300" y="10" as="targetPoint" />
          </mxGeometry>
        </mxCell>
        <mxCell id="3YYerWjg6TskRWQByBJE-1" value="Event" style="html=1;overflow=block;blockSpacing=1;whiteSpace=wrap;fontSize=16.7;spacing=9;rounded=1;absoluteArcSize=1;arcSize=9;strokeWidth=NaN;lucidId=JMouNRHL~_gb;" parent="1" vertex="1">
          <mxGeometry x="-585" y="30" width="120" height="90" as="geometry" />
        </mxCell>
        <mxCell id="3YYerWjg6TskRWQByBJE-148" style="edgeStyle=orthogonalEdgeStyle;rounded=0;orthogonalLoop=1;jettySize=auto;html=1;exitX=1;exitY=1;exitDx=0;exitDy=0;entryX=0.75;entryY=0;entryDx=0;entryDy=0;endArrow=ERmany;endFill=0;" parent="1" source="3YYerWjg6TskRWQByBJE-8" target="3YYerWjg6TskRWQByBJE-56" edge="1">
          <mxGeometry relative="1" as="geometry" />
        </mxCell>
        <mxCell id="3YYerWjg6TskRWQByBJE-8" value="HOSTS" style="html=1;overflow=block;blockSpacing=1;whiteSpace=wrap;rhombus;fontSize=16.7;spacing=3.8;rounded=1;absoluteArcSize=1;arcSize=9;strokeWidth=NaN;lucidId=9RouuCgjWrDV;" parent="1" vertex="1">
          <mxGeometry x="-525" y="195" width="120" height="90" as="geometry" />
        </mxCell>
        <mxCell id="3YYerWjg6TskRWQByBJE-9" value="" style="html=1;jettySize=18;whiteSpace=wrap;fontSize=13;strokeOpacity=100;strokeWidth=0.8;rounded=1;arcSize=12;edgeStyle=orthogonalEdgeStyle;startArrow=none;endArrow=ERmany;endSize=10;exitX=0.5;exitY=0.008;exitPerimeter=0;entryX=0.5;entryY=1.008;entryPerimeter=0;lucidId=ESouxcLnkxcx;" parent="1" source="3YYerWjg6TskRWQByBJE-8" target="3YYerWjg6TskRWQByBJE-1" edge="1">
          <mxGeometry width="100" height="100" relative="1" as="geometry">
            <Array as="points" />
          </mxGeometry>
        </mxCell>
        <mxCell id="3YYerWjg6TskRWQByBJE-10" value="" style="html=1;jettySize=18;whiteSpace=wrap;fontSize=13;strokeOpacity=100;strokeWidth=0.8;rounded=1;arcSize=12;edgeStyle=orthogonalEdgeStyle;startArrow=none;endArrow=ERone;endSize=16;exitX=0.5;exitY=0.008;exitPerimeter=0;entryX=0.773;entryY=1.008;entryPerimeter=0;lucidId=2Sou~9WhxUs-;" parent="1" source="3YYerWjg6TskRWQByBJE-8" target="3YYerWjg6TskRWQByBJE-1" edge="1">
          <mxGeometry width="100" height="100" relative="1" as="geometry">
            <Array as="points" />
          </mxGeometry>
        </mxCell>
        <mxCell id="3YYerWjg6TskRWQByBJE-11" value="Venue" style="html=1;overflow=block;blockSpacing=1;whiteSpace=wrap;fontSize=16.7;spacing=9;rounded=1;absoluteArcSize=1;arcSize=9;strokeWidth=NaN;lucidId=aTouWY-O8.sT;" parent="1" vertex="1">
          <mxGeometry x="-645" y="375" width="120" height="90" as="geometry" />
        </mxCell>
        <mxCell id="3YYerWjg6TskRWQByBJE-12" value="" style="html=1;jettySize=18;whiteSpace=wrap;fontSize=13;strokeOpacity=100;strokeWidth=0.8;rounded=1;arcSize=12;edgeStyle=orthogonalEdgeStyle;startArrow=none;endArrow=ERmany;endSize=10;exitX=0.5;exitY=0.992;exitPerimeter=0;entryX=0.5;entryY=-0.008;entryPerimeter=0;lucidId=x3ou37t5DhCt;" parent="1" source="3YYerWjg6TskRWQByBJE-8" target="3YYerWjg6TskRWQByBJE-11" edge="1">
          <mxGeometry width="100" height="100" relative="1" as="geometry">
            <Array as="points" />
          </mxGeometry>
        </mxCell>
        <mxCell id="3YYerWjg6TskRWQByBJE-17" value="" style="html=1;jettySize=18;whiteSpace=wrap;fontSize=13;strokeOpacity=100;strokeWidth=0.8;rounded=1;arcSize=12;edgeStyle=orthogonalEdgeStyle;startArrow=none;endArrow=none;exitX=0.5;exitY=-0.013;exitPerimeter=0;entryX=-0.006;entryY=0.5;entryPerimeter=0;lucidId=o4oul_FPCEqU;" parent="1" target="3YYerWjg6TskRWQByBJE-11" edge="1">
          <mxGeometry width="100" height="100" relative="1" as="geometry">
            <Array as="points" />
            <mxPoint x="-720" y="449.2199999999998" as="sourcePoint" />
          </mxGeometry>
        </mxCell>
        <mxCell id="3YYerWjg6TskRWQByBJE-18" value="" style="html=1;jettySize=18;whiteSpace=wrap;fontSize=13;strokeOpacity=100;strokeWidth=0.8;rounded=1;arcSize=12;edgeStyle=orthogonalEdgeStyle;startArrow=none;endArrow=none;exitX=0.5;exitY=-0.013;exitPerimeter=0;entryX=0.5;entryY=1.008;entryPerimeter=0;lucidId=r4oujT2c8QCv;" parent="1" target="3YYerWjg6TskRWQByBJE-11" edge="1">
          <mxGeometry width="100" height="100" relative="1" as="geometry">
            <Array as="points" />
            <mxPoint x="-585" y="509.2199999999998" as="sourcePoint" />
          </mxGeometry>
        </mxCell>
        <mxCell id="3YYerWjg6TskRWQByBJE-19" value="" style="html=1;jettySize=18;whiteSpace=wrap;fontSize=13;strokeOpacity=100;strokeWidth=0.8;rounded=1;arcSize=12;edgeStyle=orthogonalEdgeStyle;startArrow=none;endArrow=none;exitX=0.5;exitY=-0.013;exitPerimeter=0;entryX=1.006;entryY=0.5;entryPerimeter=0;lucidId=t4ou21cSUB4p;" parent="1" target="3YYerWjg6TskRWQByBJE-11" edge="1">
          <mxGeometry width="100" height="100" relative="1" as="geometry">
            <Array as="points" />
            <mxPoint x="-465" y="509.2199999999998" as="sourcePoint" />
          </mxGeometry>
        </mxCell>
        <mxCell id="3YYerWjg6TskRWQByBJE-21" value="ATTENDS" style="html=1;overflow=block;blockSpacing=1;whiteSpace=wrap;rhombus;fontSize=16.7;spacing=3.8;rounded=1;absoluteArcSize=1;arcSize=9;strokeWidth=NaN;lucidId=04ouIuqk2hGq;" parent="1" vertex="1">
          <mxGeometry x="-240" y="-17" width="120" height="90" as="geometry" />
        </mxCell>
        <mxCell id="3YYerWjg6TskRWQByBJE-23" value="Attendees" style="html=1;overflow=block;blockSpacing=1;whiteSpace=wrap;fontSize=16.7;spacing=9;rounded=1;absoluteArcSize=1;arcSize=9;strokeWidth=NaN;lucidId=y5oucva4cXVt;" parent="1" vertex="1">
          <mxGeometry x="-75" y="-17" width="120" height="90" as="geometry" />
        </mxCell>
        <mxCell id="3YYerWjg6TskRWQByBJE-24" value="" style="html=1;jettySize=18;whiteSpace=wrap;fontSize=13;strokeOpacity=100;strokeWidth=0.8;rounded=1;arcSize=12;edgeStyle=orthogonalEdgeStyle;startArrow=none;endArrow=ERone;endSize=16;exitX=0.988;exitY=0.5;exitPerimeter=0;entryX=-0.006;entryY=0.5;entryPerimeter=0;lucidId=Q5ouWn6VQ3AR;" parent="1" source="3YYerWjg6TskRWQByBJE-21" target="3YYerWjg6TskRWQByBJE-23" edge="1">
          <mxGeometry width="100" height="100" relative="1" as="geometry">
            <Array as="points" />
          </mxGeometry>
        </mxCell>
        <mxCell id="3YYerWjg6TskRWQByBJE-30" value="" style="html=1;jettySize=18;whiteSpace=wrap;fontSize=13;strokeOpacity=100;strokeWidth=0.8;rounded=1;arcSize=12;edgeStyle=orthogonalEdgeStyle;startArrow=none;endArrow=none;exitX=-0.005;exitY=0.5;exitPerimeter=0;entryX=1.002;entryY=0.974;entryPerimeter=0;lucidId=A6ouLoQHbEXY;" parent="1" target="3YYerWjg6TskRWQByBJE-23" edge="1">
          <mxGeometry width="100" height="100" relative="1" as="geometry">
            <Array as="points" />
            <mxPoint x="97.92500000000018" y="70" as="sourcePoint" />
          </mxGeometry>
        </mxCell>
        <mxCell id="3YYerWjg6TskRWQByBJE-31" value="" style="html=1;jettySize=18;whiteSpace=wrap;fontSize=13;strokeOpacity=100;strokeWidth=0.8;rounded=1;arcSize=12;edgeStyle=orthogonalEdgeStyle;startArrow=none;endArrow=none;exitX=0;exitY=0.5;entryX=1.006;entryY=0.5;entryPerimeter=0;lucidId=D6ouX-VdH8xB;exitDx=0;exitDy=0;" parent="1" source="3YYerWjg6TskRWQByBJE-101" target="3YYerWjg6TskRWQByBJE-23" edge="1">
          <mxGeometry width="100" height="100" relative="1" as="geometry">
            <Array as="points" />
            <mxPoint x="74.17500000000018" y="-25" as="sourcePoint" />
          </mxGeometry>
        </mxCell>
        <mxCell id="3YYerWjg6TskRWQByBJE-32" value="" style="html=1;jettySize=18;whiteSpace=wrap;fontSize=13;strokeOpacity=100;strokeWidth=0.8;rounded=1;arcSize=12;edgeStyle=orthogonalEdgeStyle;startArrow=none;endArrow=none;exitX=0.5;exitY=1.013;exitPerimeter=0;entryX=0.5;entryY=-0.008;entryPerimeter=0;lucidId=F6ouu0lnaF1J;" parent="1" target="3YYerWjg6TskRWQByBJE-23" edge="1">
          <mxGeometry width="100" height="100" relative="1" as="geometry">
            <Array as="points" />
            <mxPoint x="-15" y="-39.22000000000003" as="sourcePoint" />
          </mxGeometry>
        </mxCell>
        <mxCell id="3YYerWjg6TskRWQByBJE-33" value="REQUIRES" style="html=1;overflow=block;blockSpacing=1;whiteSpace=wrap;rhombus;fontSize=16.7;spacing=3.8;rounded=1;absoluteArcSize=1;arcSize=9;strokeWidth=NaN;lucidId=capuCbV_9YsM;" parent="1" vertex="1">
          <mxGeometry x="-780" y="120" width="120" height="90" as="geometry" />
        </mxCell>
        <mxCell id="3YYerWjg6TskRWQByBJE-34" value="VENDOR" style="html=1;overflow=block;blockSpacing=1;whiteSpace=wrap;fontSize=16.7;spacing=9;rounded=1;absoluteArcSize=1;arcSize=9;strokeWidth=NaN;lucidId=Wapu~7~315Fi;" parent="1" vertex="1">
          <mxGeometry x="-900" width="120" height="90" as="geometry" />
        </mxCell>
        <mxCell id="3YYerWjg6TskRWQByBJE-38" value="" style="html=1;jettySize=18;whiteSpace=wrap;fontSize=13;strokeOpacity=100;strokeWidth=0.8;rounded=1;arcSize=12;edgeStyle=orthogonalEdgeStyle;startArrow=none;endArrow=ERmany;endSize=10;exitX=0.012;exitY=0.5;exitPerimeter=0;entryX=0.5;entryY=1.008;entryPerimeter=0;lucidId=Lbpu8JQuPEZj;" parent="1" source="3YYerWjg6TskRWQByBJE-33" target="3YYerWjg6TskRWQByBJE-34" edge="1">
          <mxGeometry width="100" height="100" relative="1" as="geometry">
            <Array as="points">
              <mxPoint x="-779" y="120" />
              <mxPoint x="-798" y="120" />
              <mxPoint x="-798" y="108" />
              <mxPoint x="-840" y="108" />
            </Array>
          </mxGeometry>
        </mxCell>
        <mxCell id="3YYerWjg6TskRWQByBJE-39" value="" style="html=1;jettySize=18;whiteSpace=wrap;fontSize=13;strokeOpacity=100;strokeWidth=0.8;rounded=1;arcSize=12;edgeStyle=orthogonalEdgeStyle;startArrow=none;endArrow=ERmany;endSize=10;exitX=0.988;exitY=0.5;exitPerimeter=0;entryX=-0.006;entryY=0.5;entryPerimeter=0;lucidId=RbpuL.DRW4Ai;" parent="1" source="3YYerWjg6TskRWQByBJE-33" target="3YYerWjg6TskRWQByBJE-1" edge="1">
          <mxGeometry width="100" height="100" relative="1" as="geometry">
            <Array as="points" />
          </mxGeometry>
        </mxCell>
        <mxCell id="3YYerWjg6TskRWQByBJE-40" value="" style="html=1;jettySize=18;whiteSpace=wrap;fontSize=13;strokeOpacity=100;strokeWidth=0.8;rounded=1;arcSize=12;edgeStyle=orthogonalEdgeStyle;startArrow=none;endArrow=none;exitX=-0.006;exitY=0.5;exitPerimeter=0;entryX=1.006;entryY=0.524;entryPerimeter=0;lucidId=RcpuheadQ8M6;" parent="1" source="3YYerWjg6TskRWQByBJE-34" edge="1">
          <mxGeometry width="100" height="100" relative="1" as="geometry">
            <Array as="points" />
            <mxPoint x="-929.2800000000002" y="16.440000000000055" as="targetPoint" />
          </mxGeometry>
        </mxCell>
        <mxCell id="3YYerWjg6TskRWQByBJE-41" value="" style="html=1;jettySize=18;whiteSpace=wrap;fontSize=13;strokeOpacity=100;strokeWidth=0.8;rounded=1;arcSize=12;edgeStyle=orthogonalEdgeStyle;startArrow=none;endArrow=none;exitX=0.5;exitY=-0.008;exitPerimeter=0;entryX=0.5;entryY=1.013;entryPerimeter=0;lucidId=Tcpuw3-ZfYZ1;" parent="1" source="3YYerWjg6TskRWQByBJE-34" edge="1">
          <mxGeometry width="100" height="100" relative="1" as="geometry">
            <Array as="points" />
            <mxPoint x="-840" y="-22.2199999999998" as="targetPoint" />
          </mxGeometry>
        </mxCell>
        <mxCell id="3YYerWjg6TskRWQByBJE-42" value="" style="html=1;jettySize=18;whiteSpace=wrap;fontSize=13;strokeOpacity=100;strokeWidth=0.8;rounded=1;arcSize=12;edgeStyle=orthogonalEdgeStyle;startArrow=none;endArrow=none;exitX=1.006;exitY=0.5;exitPerimeter=0;entryX=0.003;entryY=0.637;entryPerimeter=0;lucidId=Vcpu3AazR1mu;" parent="1" source="3YYerWjg6TskRWQByBJE-34" edge="1">
          <mxGeometry width="100" height="100" relative="1" as="geometry">
            <Array as="points" />
            <mxPoint x="-749.6399999999999" y="15.2199999999998" as="targetPoint" />
          </mxGeometry>
        </mxCell>
        <mxCell id="3YYerWjg6TskRWQByBJE-43" value="Staff" style="html=1;overflow=block;blockSpacing=1;whiteSpace=wrap;fontSize=16.7;spacing=9;rounded=1;absoluteArcSize=1;arcSize=9;strokeWidth=NaN;lucidId=VopucSfuwKb8;" parent="1" vertex="1">
          <mxGeometry x="-240" y="270" width="120" height="90" as="geometry" />
        </mxCell>
        <mxCell id="3YYerWjg6TskRWQByBJE-44" value="" style="html=1;jettySize=18;whiteSpace=wrap;fontSize=13;strokeOpacity=100;strokeWidth=0.8;rounded=1;arcSize=12;edgeStyle=orthogonalEdgeStyle;startArrow=none;endArrow=ERmany;endSize=10;exitX=0.988;exitY=0.5;exitPerimeter=0;entryX=-0.006;entryY=0.5;entryPerimeter=0;lucidId=cppuTxpzSmnS;" parent="1" source="3YYerWjg6TskRWQByBJE-8" target="3YYerWjg6TskRWQByBJE-43" edge="1">
          <mxGeometry width="100" height="100" relative="1" as="geometry">
            <Array as="points" />
          </mxGeometry>
        </mxCell>
        <mxCell id="3YYerWjg6TskRWQByBJE-72" style="edgeStyle=orthogonalEdgeStyle;rounded=0;orthogonalLoop=1;jettySize=auto;html=1;exitX=0;exitY=0.5;exitDx=0;exitDy=0;entryX=1;entryY=0.75;entryDx=0;entryDy=0;endArrow=none;endFill=0;" parent="1" source="3YYerWjg6TskRWQByBJE-107" target="3YYerWjg6TskRWQByBJE-43" edge="1">
          <mxGeometry relative="1" as="geometry">
            <mxPoint x="-60" y="360.0000000000002" as="sourcePoint" />
          </mxGeometry>
        </mxCell>
        <mxCell id="3YYerWjg6TskRWQByBJE-71" style="edgeStyle=orthogonalEdgeStyle;rounded=0;orthogonalLoop=1;jettySize=auto;html=1;exitX=0;exitY=0.5;exitDx=0;exitDy=0;entryX=1;entryY=0.25;entryDx=0;entryDy=0;endArrow=none;endFill=0;" parent="1" source="3YYerWjg6TskRWQByBJE-105" target="3YYerWjg6TskRWQByBJE-43" edge="1">
          <mxGeometry relative="1" as="geometry">
            <mxPoint x="-60" y="300" as="sourcePoint" />
          </mxGeometry>
        </mxCell>
        <mxCell id="3YYerWjg6TskRWQByBJE-49" value="" style="html=1;jettySize=18;whiteSpace=wrap;fontSize=13;strokeOpacity=100;strokeWidth=0.8;rounded=1;arcSize=12;edgeStyle=orthogonalEdgeStyle;startArrow=none;endArrow=none;exitX=0.5;exitY=-0.012;exitPerimeter=0;entryX=0.5;entryY=1.008;entryPerimeter=0;lucidId=Grpuz4heApjH;" parent="1" target="3YYerWjg6TskRWQByBJE-43" edge="1">
          <mxGeometry width="100" height="100" relative="1" as="geometry">
            <Array as="points" />
            <mxPoint x="-180" y="382.28" as="sourcePoint" />
          </mxGeometry>
        </mxCell>
        <mxCell id="3YYerWjg6TskRWQByBJE-52" value="" style="html=1;jettySize=18;whiteSpace=wrap;fontSize=13;strokeOpacity=100;strokeWidth=0.8;rounded=1;arcSize=12;edgeStyle=orthogonalEdgeStyle;startArrow=none;endArrow=none;exitX=0.5;exitY=1.013;exitPerimeter=0;entryX=0.5;entryY=-0.008;entryPerimeter=0;lucidId=VrpuXE4W2~pq;" parent="1" target="3YYerWjg6TskRWQByBJE-43" edge="1">
          <mxGeometry width="100" height="100" relative="1" as="geometry">
            <Array as="points" />
            <mxPoint x="-180" y="248.77999999999997" as="sourcePoint" />
          </mxGeometry>
        </mxCell>
        <mxCell id="3YYerWjg6TskRWQByBJE-73" style="edgeStyle=orthogonalEdgeStyle;rounded=0;orthogonalLoop=1;jettySize=auto;html=1;exitX=1;exitY=0.5;exitDx=0;exitDy=0;entryX=0;entryY=0.25;entryDx=0;entryDy=0;endArrow=ERone;endFill=0;" parent="1" source="3YYerWjg6TskRWQByBJE-53" target="3YYerWjg6TskRWQByBJE-56" edge="1">
          <mxGeometry relative="1" as="geometry" />
        </mxCell>
        <mxCell id="3YYerWjg6TskRWQByBJE-53" value="Assign" style="html=1;overflow=block;blockSpacing=1;whiteSpace=wrap;rhombus;fontSize=16.7;spacing=3.8;rounded=1;absoluteArcSize=1;arcSize=9;strokeWidth=NaN;lucidId=nzpu9NAGMR0G;" parent="1" vertex="1">
          <mxGeometry x="-345" y="460" width="120" height="90" as="geometry" />
        </mxCell>
        <mxCell id="3YYerWjg6TskRWQByBJE-55" value="" style="html=1;jettySize=18;whiteSpace=wrap;fontSize=13;strokeOpacity=100;strokeWidth=0.8;rounded=1;arcSize=12;edgeStyle=orthogonalEdgeStyle;startArrow=none;endArrow=none;exitX=0.5;exitY=0.008;exitPerimeter=0;entryX=-0.006;entryY=0.802;entryPerimeter=0;lucidId=gApusRhEWEGd;" parent="1" source="3YYerWjg6TskRWQByBJE-53" target="3YYerWjg6TskRWQByBJE-43" edge="1">
          <mxGeometry width="100" height="100" relative="1" as="geometry">
            <Array as="points" />
          </mxGeometry>
        </mxCell>
        <mxCell id="3YYerWjg6TskRWQByBJE-56" value="Task" style="html=1;overflow=block;blockSpacing=1;whiteSpace=wrap;fontSize=16.7;spacing=9;rounded=1;absoluteArcSize=1;arcSize=9;strokeWidth=NaN;lucidId=nApu86E3XuNn;" parent="1" vertex="1">
          <mxGeometry x="-180" y="480" width="120" height="90" as="geometry" />
        </mxCell>
        <mxCell id="3YYerWjg6TskRWQByBJE-65" style="edgeStyle=orthogonalEdgeStyle;rounded=0;orthogonalLoop=1;jettySize=auto;html=1;exitX=0;exitY=0.5;exitDx=0;exitDy=0;entryX=1;entryY=0.25;entryDx=0;entryDy=0;endArrow=none;endFill=0;" parent="1" target="3YYerWjg6TskRWQByBJE-56" edge="1">
          <mxGeometry relative="1" as="geometry">
            <mxPoint x="-21" y="480" as="sourcePoint" />
          </mxGeometry>
        </mxCell>
        <mxCell id="3YYerWjg6TskRWQByBJE-64" style="edgeStyle=orthogonalEdgeStyle;rounded=0;orthogonalLoop=1;jettySize=auto;html=1;exitX=0;exitY=0.5;exitDx=0;exitDy=0;entryX=1;entryY=0.75;entryDx=0;entryDy=0;endArrow=none;endFill=0;" parent="1" target="3YYerWjg6TskRWQByBJE-56" edge="1">
          <mxGeometry relative="1" as="geometry">
            <mxPoint x="-21" y="560" as="sourcePoint" />
          </mxGeometry>
        </mxCell>
        <mxCell id="3YYerWjg6TskRWQByBJE-62" style="edgeStyle=orthogonalEdgeStyle;rounded=0;orthogonalLoop=1;jettySize=auto;html=1;exitX=0.5;exitY=0;exitDx=0;exitDy=0;entryX=0;entryY=0.75;entryDx=0;entryDy=0;endArrow=none;endFill=0;" parent="1" target="3YYerWjg6TskRWQByBJE-56" edge="1">
          <mxGeometry relative="1" as="geometry">
            <mxPoint x="-223" y="615" as="sourcePoint" />
          </mxGeometry>
        </mxCell>
        <mxCell id="3YYerWjg6TskRWQByBJE-63" style="edgeStyle=orthogonalEdgeStyle;rounded=0;orthogonalLoop=1;jettySize=auto;html=1;exitX=0.5;exitY=0;exitDx=0;exitDy=0;entryX=0.5;entryY=1;entryDx=0;entryDy=0;endArrow=none;endFill=0;" parent="1" target="3YYerWjg6TskRWQByBJE-56" edge="1">
          <mxGeometry relative="1" as="geometry">
            <mxPoint x="-80.5" y="626" as="sourcePoint" />
          </mxGeometry>
        </mxCell>
        <mxCell id="3YYerWjg6TskRWQByBJE-75" value="&lt;span style=&quot;caret-color: rgb(0, 0, 0); text-align: start; text-size-adjust: auto;&quot; id=&quot;docs-internal-guid-c50f5e17-7fff-10d5-c234-fa0ce1d54fe7&quot;&gt;&lt;span style=&quot;background-color: transparent; font-variant-east-asian: normal; font-variant-position: normal; vertical-align: baseline; white-space-collapse: preserve;&quot;&gt;&lt;font face=&quot;Helvetica&quot; style=&quot;font-size: 17px;&quot;&gt;AVAILABILITY&lt;/font&gt;&lt;/span&gt;&lt;/span&gt;" style="ellipse;whiteSpace=wrap;html=1;" parent="1" vertex="1">
          <mxGeometry x="-760" y="-27" width="120" height="80" as="geometry" />
        </mxCell>
        <mxCell id="3YYerWjg6TskRWQByBJE-79" value="&lt;span style=&quot;font-size: 17px;&quot;&gt;VENDOR_ID&lt;/span&gt;" style="ellipse;whiteSpace=wrap;html=1;" parent="1" vertex="1">
          <mxGeometry x="-1050" y="-15" width="120" height="80" as="geometry" />
        </mxCell>
        <mxCell id="3YYerWjg6TskRWQByBJE-82" value="&lt;span style=&quot;font-size: 17px;&quot;&gt;NAME&lt;/span&gt;" style="ellipse;whiteSpace=wrap;html=1;" parent="1" vertex="1">
          <mxGeometry x="-900" y="-95" width="120" height="80" as="geometry" />
        </mxCell>
        <mxCell id="3YYerWjg6TskRWQByBJE-130" style="edgeStyle=orthogonalEdgeStyle;rounded=0;orthogonalLoop=1;jettySize=auto;html=1;exitX=0.5;exitY=1;exitDx=0;exitDy=0;entryX=0.25;entryY=0;entryDx=0;entryDy=0;endArrow=none;endFill=0;" parent="1" source="3YYerWjg6TskRWQByBJE-83" target="3YYerWjg6TskRWQByBJE-1" edge="1">
          <mxGeometry relative="1" as="geometry" />
        </mxCell>
        <mxCell id="3YYerWjg6TskRWQByBJE-83" value="&lt;font style=&quot;font-size: 17px;&quot;&gt;EVENT_ID&lt;/font&gt;" style="ellipse;whiteSpace=wrap;html=1;" parent="1" vertex="1">
          <mxGeometry x="-610" y="-97" width="120" height="80" as="geometry" />
        </mxCell>
        <mxCell id="3YYerWjg6TskRWQByBJE-88" value="&lt;font size=&quot;3&quot;&gt;CAPACITY&lt;/font&gt;" style="ellipse;whiteSpace=wrap;html=1;" parent="1" vertex="1">
          <mxGeometry x="-780" y="450" width="120" height="80" as="geometry" />
        </mxCell>
        <mxCell id="3YYerWjg6TskRWQByBJE-90" value="&lt;font size=&quot;3&quot;&gt;LOCATION&lt;/font&gt;" style="ellipse;whiteSpace=wrap;html=1;" parent="1" vertex="1">
          <mxGeometry x="-650" y="510" width="120" height="80" as="geometry" />
        </mxCell>
        <mxCell id="3YYerWjg6TskRWQByBJE-96" value="&lt;font style=&quot;font-size: 17px;&quot;&gt;VENUE_NAME&lt;/font&gt;" style="ellipse;whiteSpace=wrap;html=1;" parent="1" vertex="1">
          <mxGeometry x="-510" y="510" width="120" height="80" as="geometry" />
        </mxCell>
        <mxCell id="3YYerWjg6TskRWQByBJE-98" value="&lt;font size=&quot;3&quot;&gt;VENUE_ID&lt;/font&gt;" style="ellipse;whiteSpace=wrap;html=1;" parent="1" vertex="1">
          <mxGeometry x="-465" y="345" width="120" height="80" as="geometry" />
        </mxCell>
        <mxCell id="3YYerWjg6TskRWQByBJE-99" style="edgeStyle=orthogonalEdgeStyle;rounded=0;orthogonalLoop=1;jettySize=auto;html=1;exitX=0;exitY=0.5;exitDx=0;exitDy=0;endArrow=none;endFill=0;" parent="1" source="3YYerWjg6TskRWQByBJE-98" edge="1">
          <mxGeometry relative="1" as="geometry">
            <mxPoint x="-530" y="385" as="targetPoint" />
          </mxGeometry>
        </mxCell>
        <mxCell id="3YYerWjg6TskRWQByBJE-100" value="&lt;font size=&quot;3&quot;&gt;ATTENDEE_ID&lt;/font&gt;" style="ellipse;whiteSpace=wrap;html=1;" parent="1" vertex="1">
          <mxGeometry x="-75" y="-120" width="120" height="80" as="geometry" />
        </mxCell>
        <mxCell id="3YYerWjg6TskRWQByBJE-101" value="&lt;font style=&quot;font-size: 17px;&quot;&gt;ATTENDEE_NAME&lt;/font&gt;" style="ellipse;whiteSpace=wrap;html=1;" parent="1" vertex="1">
          <mxGeometry x="97.5" y="-70" width="167.5" height="80" as="geometry" />
        </mxCell>
        <mxCell id="3YYerWjg6TskRWQByBJE-102" value="&lt;font size=&quot;3&quot;&gt;PHONE_NUMBER&lt;/font&gt;" style="ellipse;whiteSpace=wrap;html=1;" parent="1" vertex="1">
          <mxGeometry x="92.5" y="35" width="147.5" height="80" as="geometry" />
        </mxCell>
        <mxCell id="3YYerWjg6TskRWQByBJE-126" style="edgeStyle=orthogonalEdgeStyle;rounded=0;orthogonalLoop=1;jettySize=auto;html=1;exitX=0.5;exitY=0;exitDx=0;exitDy=0;entryX=0.5;entryY=1;entryDx=0;entryDy=0;endArrow=none;endFill=0;" parent="1" source="3YYerWjg6TskRWQByBJE-103" target="3YYerWjg6TskRWQByBJE-23" edge="1">
          <mxGeometry relative="1" as="geometry" />
        </mxCell>
        <mxCell id="3YYerWjg6TskRWQByBJE-103" value="&lt;font style=&quot;font-size: 17px;&quot;&gt;EVENT_ID&lt;/font&gt;" style="ellipse;whiteSpace=wrap;html=1;" parent="1" vertex="1">
          <mxGeometry x="-75" y="110" width="120" height="80" as="geometry" />
        </mxCell>
        <mxCell id="3YYerWjg6TskRWQByBJE-104" value="&lt;font size=&quot;3&quot;&gt;STAFF_ID&lt;/font&gt;" style="ellipse;whiteSpace=wrap;html=1;" parent="1" vertex="1">
          <mxGeometry x="-240" y="170" width="120" height="80" as="geometry" />
        </mxCell>
        <mxCell id="3YYerWjg6TskRWQByBJE-105" value="&lt;font size=&quot;3&quot;&gt;NAME&lt;/font&gt;" style="ellipse;whiteSpace=wrap;html=1;" parent="1" vertex="1">
          <mxGeometry x="-50" y="258" width="120" height="80" as="geometry" />
        </mxCell>
        <mxCell id="3YYerWjg6TskRWQByBJE-107" value="&lt;font size=&quot;3&quot;&gt;ROLE&lt;/font&gt;" style="ellipse;whiteSpace=wrap;html=1;" parent="1" vertex="1">
          <mxGeometry x="-50" y="345" width="120" height="80" as="geometry" />
        </mxCell>
        <mxCell id="3YYerWjg6TskRWQByBJE-108" value="&lt;font size=&quot;3&quot;&gt;EVENT_ID&lt;/font&gt;" style="ellipse;whiteSpace=wrap;html=1;" parent="1" vertex="1">
          <mxGeometry x="-240" y="380" width="120" height="80" as="geometry" />
        </mxCell>
        <mxCell id="3YYerWjg6TskRWQByBJE-109" value="&lt;font size=&quot;3&quot;&gt;TASK_ID&lt;/font&gt;" style="ellipse;whiteSpace=wrap;html=1;" parent="1" vertex="1">
          <mxGeometry x="-21" y="440" width="120" height="80" as="geometry" />
        </mxCell>
        <mxCell id="3YYerWjg6TskRWQByBJE-110" value="&lt;font size=&quot;3&quot;&gt;NAME&lt;/font&gt;" style="ellipse;whiteSpace=wrap;html=1;" parent="1" vertex="1">
          <mxGeometry x="-21" y="530" width="120" height="80" as="geometry" />
        </mxCell>
        <mxCell id="3YYerWjg6TskRWQByBJE-111" value="&lt;font size=&quot;3&quot;&gt;STATUS&lt;/font&gt;" style="ellipse;whiteSpace=wrap;html=1;" parent="1" vertex="1">
          <mxGeometry x="-141" y="620" width="120" height="80" as="geometry" />
        </mxCell>
        <mxCell id="3YYerWjg6TskRWQByBJE-112" value="&lt;font size=&quot;3&quot;&gt;EVENT_ID&lt;/font&gt;" style="ellipse;whiteSpace=wrap;html=1;" parent="1" vertex="1">
          <mxGeometry x="-340" y="580" width="120" height="80" as="geometry" />
        </mxCell>
        <mxCell id="3YYerWjg6TskRWQByBJE-124" style="edgeStyle=orthogonalEdgeStyle;rounded=0;orthogonalLoop=1;jettySize=auto;html=1;entryX=0;entryY=0.5;entryDx=0;entryDy=0;endArrow=none;endFill=0;" parent="1" source="3YYerWjg6TskRWQByBJE-116" target="3YYerWjg6TskRWQByBJE-119" edge="1">
          <mxGeometry relative="1" as="geometry" />
        </mxCell>
        <mxCell id="3YYerWjg6TskRWQByBJE-116" value="Schedule" style="html=1;overflow=block;blockSpacing=1;whiteSpace=wrap;fontSize=16.7;spacing=9;rounded=1;absoluteArcSize=1;arcSize=9;strokeWidth=NaN;lucidId=VopucSfuwKb8;" parent="1" vertex="1">
          <mxGeometry x="120" y="240" width="120" height="90" as="geometry" />
        </mxCell>
        <mxCell id="3YYerWjg6TskRWQByBJE-118" value="&lt;font size=&quot;3&quot;&gt;SCHEDULE_ID&lt;/font&gt;" style="ellipse;whiteSpace=wrap;html=1;" parent="1" vertex="1">
          <mxGeometry x="280" y="150" width="120" height="80" as="geometry" />
        </mxCell>
        <mxCell id="3YYerWjg6TskRWQByBJE-119" value="&lt;font size=&quot;3&quot;&gt;EVENT_ID&lt;/font&gt;" style="ellipse;whiteSpace=wrap;html=1;" parent="1" vertex="1">
          <mxGeometry x="290" y="245" width="120" height="80" as="geometry" />
        </mxCell>
        <mxCell id="3YYerWjg6TskRWQByBJE-122" style="edgeStyle=orthogonalEdgeStyle;rounded=0;orthogonalLoop=1;jettySize=auto;html=1;exitX=0.5;exitY=0;exitDx=0;exitDy=0;entryX=0.5;entryY=1;entryDx=0;entryDy=0;endArrow=none;endFill=0;" parent="1" source="3YYerWjg6TskRWQByBJE-120" target="3YYerWjg6TskRWQByBJE-116" edge="1">
          <mxGeometry relative="1" as="geometry" />
        </mxCell>
        <mxCell id="3YYerWjg6TskRWQByBJE-120" value="&lt;font size=&quot;3&quot;&gt;END_DATE&lt;/font&gt;" style="ellipse;whiteSpace=wrap;html=1;" parent="1" vertex="1">
          <mxGeometry x="120" y="370" width="120" height="80" as="geometry" />
        </mxCell>
        <mxCell id="3YYerWjg6TskRWQByBJE-123" style="edgeStyle=orthogonalEdgeStyle;rounded=0;orthogonalLoop=1;jettySize=auto;html=1;exitX=0;exitY=0;exitDx=0;exitDy=0;entryX=1;entryY=1;entryDx=0;entryDy=0;endArrow=none;endFill=0;" parent="1" source="3YYerWjg6TskRWQByBJE-121" target="3YYerWjg6TskRWQByBJE-116" edge="1">
          <mxGeometry relative="1" as="geometry" />
        </mxCell>
        <mxCell id="3YYerWjg6TskRWQByBJE-121" value="&lt;font size=&quot;3&quot;&gt;START_DATE&lt;/font&gt;" style="ellipse;whiteSpace=wrap;html=1;" parent="1" vertex="1">
          <mxGeometry x="290" y="350" width="120" height="80" as="geometry" />
        </mxCell>
        <mxCell id="3YYerWjg6TskRWQByBJE-125" style="edgeStyle=orthogonalEdgeStyle;rounded=0;orthogonalLoop=1;jettySize=auto;html=1;exitX=0;exitY=0.5;exitDx=0;exitDy=0;entryX=0.671;entryY=-0.011;entryDx=0;entryDy=0;entryPerimeter=0;endArrow=none;endFill=0;" parent="1" source="3YYerWjg6TskRWQByBJE-118" target="3YYerWjg6TskRWQByBJE-116" edge="1">
          <mxGeometry relative="1" as="geometry" />
        </mxCell>
        <mxCell id="3YYerWjg6TskRWQByBJE-129" style="edgeStyle=orthogonalEdgeStyle;rounded=0;orthogonalLoop=1;jettySize=auto;html=1;exitX=0;exitY=0.5;exitDx=0;exitDy=0;endArrow=none;endFill=0;" parent="1" source="3YYerWjg6TskRWQByBJE-128" edge="1">
          <mxGeometry relative="1" as="geometry">
            <mxPoint x="-460" y="100" as="targetPoint" />
          </mxGeometry>
        </mxCell>
        <mxCell id="3YYerWjg6TskRWQByBJE-128" value="&lt;font size=&quot;3&quot;&gt;EVENT_NAME&lt;/font&gt;" style="ellipse;whiteSpace=wrap;html=1;" parent="1" vertex="1">
          <mxGeometry x="-400" y="100" width="120" height="80" as="geometry" />
        </mxCell>
        <mxCell id="3YYerWjg6TskRWQByBJE-132" style="edgeStyle=orthogonalEdgeStyle;rounded=0;orthogonalLoop=1;jettySize=auto;html=1;exitX=0.5;exitY=1;exitDx=0;exitDy=0;entryX=0.75;entryY=0;entryDx=0;entryDy=0;endArrow=none;endFill=0;" parent="1" source="3YYerWjg6TskRWQByBJE-131" target="3YYerWjg6TskRWQByBJE-1" edge="1">
          <mxGeometry relative="1" as="geometry" />
        </mxCell>
        <mxCell id="3YYerWjg6TskRWQByBJE-131" value="&lt;font size=&quot;3&quot;&gt;EVENT_DATE&lt;/font&gt;" style="ellipse;whiteSpace=wrap;html=1;" parent="1" vertex="1">
          <mxGeometry x="-485" y="-97" width="120" height="80" as="geometry" />
        </mxCell>
        <mxCell id="3YYerWjg6TskRWQByBJE-142" style="edgeStyle=orthogonalEdgeStyle;rounded=0;orthogonalLoop=1;jettySize=auto;html=1;exitX=1;exitY=0.75;exitDx=0;exitDy=0;entryX=0;entryY=0.5;entryDx=0;entryDy=0;endArrow=none;endFill=0;" parent="1" source="3YYerWjg6TskRWQByBJE-133" target="3YYerWjg6TskRWQByBJE-136" edge="1">
          <mxGeometry relative="1" as="geometry" />
        </mxCell>
        <mxCell id="3YYerWjg6TskRWQByBJE-133" value="Weather" style="html=1;overflow=block;blockSpacing=1;whiteSpace=wrap;fontSize=16.7;spacing=9;rounded=1;absoluteArcSize=1;arcSize=9;strokeWidth=NaN;lucidId=VopucSfuwKb8;" parent="1" vertex="1">
          <mxGeometry x="130" y="500" width="120" height="90" as="geometry" />
        </mxCell>
        <mxCell id="3YYerWjg6TskRWQByBJE-135" value="&lt;font style=&quot;font-size: 17px;&quot;&gt;DATASET_ID&lt;/font&gt;" style="ellipse;whiteSpace=wrap;html=1;" parent="1" vertex="1">
          <mxGeometry x="290" y="465" width="120" height="80" as="geometry" />
        </mxCell>
        <mxCell id="3YYerWjg6TskRWQByBJE-136" value="&lt;font style=&quot;font-size: 17px;&quot;&gt;TEMPERATURE&lt;/font&gt;" style="ellipse;whiteSpace=wrap;html=1;" parent="1" vertex="1">
          <mxGeometry x="280" y="570" width="150" height="80" as="geometry" />
        </mxCell>
        <mxCell id="3YYerWjg6TskRWQByBJE-137" value="&lt;font style=&quot;font-size: 17px;&quot;&gt;EVENT_ID&lt;/font&gt;" style="ellipse;whiteSpace=wrap;html=1;" parent="1" vertex="1">
          <mxGeometry x="45" y="640" width="120" height="80" as="geometry" />
        </mxCell>
        <mxCell id="3YYerWjg6TskRWQByBJE-138" value="&lt;font style=&quot;font-size: 17px;&quot;&gt;HUMIDITY&lt;/font&gt;" style="ellipse;whiteSpace=wrap;html=1;" parent="1" vertex="1">
          <mxGeometry x="190" y="640" width="120" height="80" as="geometry" />
        </mxCell>
        <mxCell id="3YYerWjg6TskRWQByBJE-139" style="edgeStyle=orthogonalEdgeStyle;rounded=0;orthogonalLoop=1;jettySize=auto;html=1;exitX=1;exitY=0;exitDx=0;exitDy=0;entryX=0.14;entryY=0.99;entryDx=0;entryDy=0;entryPerimeter=0;endArrow=none;endFill=0;" parent="1" source="3YYerWjg6TskRWQByBJE-137" target="3YYerWjg6TskRWQByBJE-133" edge="1">
          <mxGeometry relative="1" as="geometry" />
        </mxCell>
        <mxCell id="3YYerWjg6TskRWQByBJE-140" style="edgeStyle=orthogonalEdgeStyle;rounded=0;orthogonalLoop=1;jettySize=auto;html=1;exitX=0;exitY=0;exitDx=0;exitDy=0;entryX=0.64;entryY=0.99;entryDx=0;entryDy=0;entryPerimeter=0;endArrow=none;endFill=0;" parent="1" source="3YYerWjg6TskRWQByBJE-138" target="3YYerWjg6TskRWQByBJE-133" edge="1">
          <mxGeometry relative="1" as="geometry" />
        </mxCell>
        <mxCell id="3YYerWjg6TskRWQByBJE-141" style="edgeStyle=orthogonalEdgeStyle;rounded=0;orthogonalLoop=1;jettySize=auto;html=1;exitX=1;exitY=0.25;exitDx=0;exitDy=0;entryX=0.049;entryY=0.71;entryDx=0;entryDy=0;entryPerimeter=0;endArrow=none;endFill=0;" parent="1" source="3YYerWjg6TskRWQByBJE-133" target="3YYerWjg6TskRWQByBJE-135" edge="1">
          <mxGeometry relative="1" as="geometry" />
        </mxCell>
        <mxCell id="dZ7u_Dvg4I6HLzzPd2oi-1" value="" style="edgeStyle=orthogonalEdgeStyle;rounded=0;orthogonalLoop=1;jettySize=auto;html=1;entryX=0.125;entryY=0.98;entryDx=0;entryDy=0;entryPerimeter=0;endArrow=none;endFill=0;" edge="1" parent="1" source="3YYerWjg6TskRWQByBJE-143" target="3YYerWjg6TskRWQByBJE-34">
          <mxGeometry relative="1" as="geometry" />
        </mxCell>
        <mxCell id="3YYerWjg6TskRWQByBJE-143" value="PROVIDES" style="html=1;overflow=block;blockSpacing=1;whiteSpace=wrap;rhombus;fontSize=16.7;spacing=3.8;rounded=1;absoluteArcSize=1;arcSize=9;strokeWidth=NaN;lucidId=9RouuCgjWrDV;" parent="1" vertex="1">
          <mxGeometry x="-900" y="195" width="120" height="90" as="geometry" />
        </mxCell>
        <mxCell id="3YYerWjg6TskRWQByBJE-145" value="Supplies" style="html=1;overflow=block;blockSpacing=1;whiteSpace=wrap;fontSize=16.7;spacing=9;rounded=1;absoluteArcSize=1;arcSize=9;strokeWidth=NaN;lucidId=Wapu~7~315Fi;" parent="1" vertex="1">
          <mxGeometry x="-900" y="345" width="120" height="90" as="geometry" />
        </mxCell>
        <mxCell id="3YYerWjg6TskRWQByBJE-147" value="" style="html=1;jettySize=18;whiteSpace=wrap;fontSize=13;strokeOpacity=100;strokeWidth=0.8;rounded=1;arcSize=12;edgeStyle=orthogonalEdgeStyle;startArrow=none;endArrow=ERmany;endSize=10;exitX=0.5;exitY=0.992;exitPerimeter=0;lucidId=x3ou37t5DhCt;" parent="1" edge="1">
          <mxGeometry width="100" height="100" relative="1" as="geometry">
            <Array as="points" />
            <mxPoint x="-840" y="285" as="sourcePoint" />
            <mxPoint x="-840" y="340" as="targetPoint" />
          </mxGeometry>
        </mxCell>
        <mxCell id="3YYerWjg6TskRWQByBJE-149" value="" style="html=1;jettySize=18;whiteSpace=wrap;fontSize=13;strokeOpacity=100;strokeWidth=0.8;rounded=1;arcSize=12;edgeStyle=orthogonalEdgeStyle;startArrow=none;endArrow=ERmany;endSize=10;lucidId=x3ou37t5DhCt;exitX=0;exitY=0.5;exitDx=0;exitDy=0;entryX=1;entryY=0.5;entryDx=0;entryDy=0;" parent="1" source="3YYerWjg6TskRWQByBJE-8" target="3YYerWjg6TskRWQByBJE-145" edge="1">
          <mxGeometry width="100" height="100" relative="1" as="geometry">
            <Array as="points" />
            <mxPoint x="-600" y="270" as="sourcePoint" />
            <mxPoint x="-732.5" y="345" as="targetPoint" />
          </mxGeometry>
        </mxCell>
        <mxCell id="3YYerWjg6TskRWQByBJE-156" style="edgeStyle=orthogonalEdgeStyle;rounded=0;orthogonalLoop=1;jettySize=auto;html=1;exitX=1;exitY=0.5;exitDx=0;exitDy=0;entryX=0;entryY=0;entryDx=0;entryDy=0;endArrow=none;endFill=0;" parent="1" source="3YYerWjg6TskRWQByBJE-150" target="3YYerWjg6TskRWQByBJE-145" edge="1">
          <mxGeometry relative="1" as="geometry" />
        </mxCell>
        <mxCell id="3YYerWjg6TskRWQByBJE-150" value="&lt;font style=&quot;font-size: 17px;&quot;&gt;SUPPLY_ID&lt;/font&gt;" style="ellipse;whiteSpace=wrap;html=1;" parent="1" vertex="1">
          <mxGeometry x="-1050" y="265" width="120" height="80" as="geometry" />
        </mxCell>
        <mxCell id="3YYerWjg6TskRWQByBJE-157" style="edgeStyle=orthogonalEdgeStyle;rounded=0;orthogonalLoop=1;jettySize=auto;html=1;exitX=1;exitY=0.5;exitDx=0;exitDy=0;entryX=0;entryY=0.75;entryDx=0;entryDy=0;endArrow=none;endFill=0;" parent="1" source="3YYerWjg6TskRWQByBJE-151" target="3YYerWjg6TskRWQByBJE-145" edge="1">
          <mxGeometry relative="1" as="geometry" />
        </mxCell>
        <mxCell id="3YYerWjg6TskRWQByBJE-151" value="&lt;font style=&quot;font-size: 17px;&quot;&gt;SUPPLY_NAME&lt;/font&gt;" style="ellipse;whiteSpace=wrap;html=1;" parent="1" vertex="1">
          <mxGeometry x="-1050" y="370" width="120" height="80" as="geometry" />
        </mxCell>
        <mxCell id="3YYerWjg6TskRWQByBJE-155" style="edgeStyle=orthogonalEdgeStyle;rounded=0;orthogonalLoop=1;jettySize=auto;html=1;exitX=0;exitY=1;exitDx=0;exitDy=0;entryX=1;entryY=0;entryDx=0;entryDy=0;endArrow=none;endFill=0;" parent="1" source="3YYerWjg6TskRWQByBJE-152" target="3YYerWjg6TskRWQByBJE-145" edge="1">
          <mxGeometry relative="1" as="geometry" />
        </mxCell>
        <mxCell id="3YYerWjg6TskRWQByBJE-152" value="&lt;font style=&quot;font-size: 17px;&quot;&gt;EVENT_ID&lt;/font&gt;" style="ellipse;whiteSpace=wrap;html=1;" parent="1" vertex="1">
          <mxGeometry x="-780" y="258" width="120" height="80" as="geometry" />
        </mxCell>
        <mxCell id="3YYerWjg6TskRWQByBJE-158" style="edgeStyle=orthogonalEdgeStyle;rounded=0;orthogonalLoop=1;jettySize=auto;html=1;exitX=1;exitY=0;exitDx=0;exitDy=0;entryX=0;entryY=1;entryDx=0;entryDy=0;endArrow=none;endFill=0;" parent="1" source="3YYerWjg6TskRWQByBJE-153" target="3YYerWjg6TskRWQByBJE-145" edge="1">
          <mxGeometry relative="1" as="geometry" />
        </mxCell>
        <mxCell id="3YYerWjg6TskRWQByBJE-153" value="&lt;font style=&quot;font-size: 17px;&quot;&gt;QUANTITY&lt;/font&gt;" style="ellipse;whiteSpace=wrap;html=1;" parent="1" vertex="1">
          <mxGeometry x="-1050" y="470" width="120" height="80" as="geometry" />
        </mxCell>
        <mxCell id="3YYerWjg6TskRWQByBJE-159" style="edgeStyle=orthogonalEdgeStyle;rounded=0;orthogonalLoop=1;jettySize=auto;html=1;exitX=0.5;exitY=0;exitDx=0;exitDy=0;entryX=0.5;entryY=1;entryDx=0;entryDy=0;endArrow=none;endFill=0;" parent="1" source="3YYerWjg6TskRWQByBJE-154" target="3YYerWjg6TskRWQByBJE-145" edge="1">
          <mxGeometry relative="1" as="geometry" />
        </mxCell>
        <mxCell id="3YYerWjg6TskRWQByBJE-154" value="&lt;font style=&quot;font-size: 17px;&quot;&gt;VENDOR_ID&lt;/font&gt;" style="ellipse;whiteSpace=wrap;html=1;" parent="1" vertex="1">
          <mxGeometry x="-910" y="470" width="120" height="80" as="geometry" />
        </mxCell>
      </root>
    </mxGraphModel>
  </diagram>
</mxfile>
